<svg width="43" height="58" viewBox="0 0 43 58" fill="none" xmlns="http://www.w3.org/2000/svg">
<path d="M5.89844 50.9727C1.96615 46.8841 0 41.8581 0 35.8945C0 29.931 1.96615 24.9049 5.89844 20.8164C9.85677 16.7279 14.9219 14.6836 21.0938 14.6836C27.2396 14.6836 32.3047 16.7409 36.2891 20.8555C40.2995 24.9701 42.3047 29.9831 42.3047 35.8945C42.3047 41.806 40.2995 46.819 36.2891 50.9336C32.3047 55.0482 27.2396 57.1055 21.0938 57.1055C14.8958 57.1055 9.83073 55.0612 5.89844 50.9727ZM10.4297 25.1523C7.77344 28.043 6.44531 31.6237 6.44531 35.8945C6.44531 40.1654 7.77344 43.7591 10.4297 46.6758C13.112 49.5664 16.6667 51.0117 21.0938 51.0117C25.4688 51.0117 28.9974 49.5664 31.6797 46.6758C34.388 43.7591 35.7422 40.1654 35.7422 35.8945C35.7422 31.6237 34.388 28.043 31.6797 25.1523C28.9974 22.2357 25.4688 20.7773 21.0938 20.7773C16.6667 20.7773 13.112 22.2357 10.4297 25.1523Z" fill="#111111"/>
<path d="M35.1926 0C36.2303 4.19817 38.4473 7.45292 42.7399 7.54726C38.4473 7.6416 36.2303 10.802 35.1926 15.0945C34.1548 10.802 31.9378 7.6416 27.6453 7.54726C31.9378 7.45292 34.1548 4.19817 35.1926 0Z" fill="#D6A2AC"/>
</svg>
