<svg width="375" height="360" viewBox="0 0 375 360" fill="none" xmlns="http://www.w3.org/2000/svg">
<path d="M252.261 34.6797C254.36 43.1688 258.843 49.7503 267.523 49.9411C258.843 50.1318 254.36 56.5225 252.261 65.2024C250.163 56.5225 245.68 50.1318 237 49.9411C245.68 49.7503 250.163 43.1688 252.261 34.6797Z" fill="#D6A2AC"/>
<path d="M289.261 59.6797C291.36 68.1688 295.843 74.7503 304.523 74.9411C295.843 75.1318 291.36 81.5225 289.261 90.2024C287.163 81.5225 282.68 75.1318 274 74.9411C282.68 74.7503 287.163 68.1688 289.261 59.6797Z" fill="#D6A2AC"/>
<path d="M281.261 23.6797C282.26 27.7188 284.393 30.8503 288.523 30.9411C284.393 31.0318 282.26 34.0725 281.261 38.2024C280.263 34.0725 278.13 31.0318 274 30.9411C278.13 30.8503 280.263 27.7188 281.261 23.6797Z" fill="#D6A2AC"/>
<path d="M97.9053 291.68C113.974 291.68 127 304.706 127 320.774C127 331.627 121.058 341.09 112.25 346.091C112.015 349.136 112.524 352.527 115.686 355.688C118.271 358.275 117.081 360.367 112.453 358.921C108.352 357.64 103.034 354.123 99.5557 349.821C99.0094 349.852 98.4592 349.869 97.9053 349.869H81.0947C65.0261 349.869 52 336.843 52 320.774C52.0001 304.706 65.0262 291.68 81.0947 291.68H97.9053Z" fill="#A9BFA8" fill-opacity="0.8"/>
<path d="M85 0C109.853 9.66396e-07 130 20.1472 130 45V71.3789C130 90.7866 117.714 107.324 100.495 113.64C100.904 118.371 102.675 123.32 107.371 128.017C112.543 133.189 110.162 137.375 100.905 134.482C92.7342 131.929 82.144 124.938 75.1865 116.379H25C0.147188 116.379 -20 96.2317 -20 71.3789V45C-20 20.1472 0.147188 9.66395e-07 25 0H85Z" fill="#D5E9D4" fill-opacity="0.9"/>
<path d="M343.207 230.68C364.632 230.68 382 248.048 382 269.473C382 290.897 364.632 308.266 343.207 308.266H320.793C320.054 308.266 319.32 308.243 318.591 308.202C313.953 313.937 306.864 318.627 301.396 320.335C295.225 322.263 293.639 319.473 297.087 316.024C301.301 311.81 301.982 307.29 301.669 303.229C289.924 296.561 282 283.943 282 269.473C282 248.048 299.368 230.68 320.793 230.68H343.207Z" fill="#F5BCC8" fill-opacity="0.8"/>
<path d="M231.261 67.6797C232.26 71.7188 234.393 74.8503 238.523 74.9411C234.393 75.0318 232.26 78.0725 231.261 82.2024C230.263 78.0725 228.13 75.0318 224 74.9411C228.13 74.8503 230.263 71.7188 231.261 67.6797Z" fill="#D6A2AC"/>
<path d="M262.707 63.6797C266.804 80.2519 275.556 93.1 292.5 93.4724C275.556 93.8448 266.804 106.32 262.707 123.265C258.611 106.32 249.859 93.8448 232.915 93.4724C249.859 93.1 258.611 80.2519 262.707 63.6797Z" fill="#D6A2AC"/>
<path d="M130.308 268.404C115.436 252.887 108 233.813 108 211.18C108 188.547 115.436 169.472 130.308 153.955C145.279 138.438 164.436 130.68 187.778 130.68C211.022 130.68 230.179 138.488 245.248 154.103C260.416 169.719 268 188.744 268 211.18C268 233.615 260.416 252.64 245.248 268.256C230.179 283.872 211.022 291.68 187.778 291.68C164.337 291.68 145.181 283.921 130.308 268.404ZM147.446 170.411C137.4 181.381 132.377 194.971 132.377 211.18C132.377 227.388 137.4 241.027 147.446 252.097C157.591 263.067 171.035 268.553 187.778 268.553C204.325 268.553 217.671 263.067 227.815 252.097C238.058 241.027 243.18 227.388 243.18 211.18C243.18 194.971 238.058 181.381 227.815 170.411C217.671 159.341 204.325 153.807 187.778 153.807C171.035 153.807 157.591 159.341 147.446 170.411Z" fill="#F7F4F1"/>
</svg>
