<svg width="375" height="446" viewBox="0 0 375 446" fill="none" xmlns="http://www.w3.org/2000/svg">
<path d="M147.261 123C149.36 131.489 153.843 138.071 162.523 138.261C153.843 138.452 149.36 144.843 147.261 153.523C145.163 144.843 140.68 138.452 132 138.261C140.68 138.071 145.163 131.489 147.261 123Z" fill="#D6A2AC" fill-opacity="0.5"/>
<path d="M289.261 148C291.36 156.489 295.843 163.071 304.523 163.261C295.843 163.452 291.36 169.843 289.261 178.523C287.163 169.843 282.68 163.452 274 163.261C282.68 163.071 287.163 156.489 289.261 148Z" fill="#D6A2AC" fill-opacity="0.5"/>
<path d="M245.261 287C246.26 291.039 248.393 294.171 252.523 294.261C248.393 294.352 246.26 297.393 245.261 301.523C244.263 297.393 242.13 294.352 238 294.261C242.13 294.171 244.263 291.039 245.261 287Z" fill="#D6A2AC" fill-opacity="0.5"/>
<path d="M56.2614 185C57.2598 189.039 59.3928 192.171 63.5227 192.261C59.3928 192.352 57.2598 195.393 56.2614 199.523C55.2629 195.393 53.1299 192.352 49 192.261C53.1299 192.171 55.2629 189.039 56.2614 185Z" fill="#D6A2AC" fill-opacity="0.5"/>
<path d="M136.261 333C137.26 337.039 139.393 340.171 143.523 340.261C139.393 340.352 137.26 343.393 136.261 347.523C135.263 343.393 133.13 340.352 129 340.261C133.13 340.171 135.263 337.039 136.261 333Z" fill="#D6A2AC" fill-opacity="0.5"/>
<path d="M200.414 232.494C196.138 228.157 194 222.826 194 216.5C194 210.174 196.138 204.843 200.414 200.506C204.718 196.169 210.225 194 216.936 194C223.619 194 229.127 196.182 233.459 200.547C237.82 204.912 240 210.229 240 216.5C240 222.771 237.82 228.088 233.459 232.453C229.127 236.818 223.619 239 216.936 239C210.197 239 204.689 236.831 200.414 232.494ZM205.341 205.105C202.452 208.171 201.008 211.97 201.008 216.5C201.008 221.03 202.452 224.843 205.341 227.936C208.257 231.003 212.123 232.536 216.936 232.536C221.693 232.536 225.53 231.003 228.447 227.936C231.392 224.843 232.864 221.03 232.864 216.5C232.864 211.97 231.392 208.171 228.447 205.105C225.53 202.011 221.693 200.464 216.936 200.464C212.123 200.464 208.257 202.011 205.341 205.105Z" fill="#F5BCC8"/>
<path d="M142.414 232.494C138.138 228.157 136 222.826 136 216.5C136 210.174 138.138 204.843 142.414 200.506C146.718 196.169 152.225 194 158.936 194C165.619 194 171.127 196.182 175.459 200.547C179.82 204.912 182 210.229 182 216.5C182 222.771 179.82 228.088 175.459 232.453C171.127 236.818 165.619 239 158.936 239C152.197 239 146.689 236.831 142.414 232.494ZM147.341 205.105C144.452 208.171 143.008 211.97 143.008 216.5C143.008 221.03 144.452 224.843 147.341 227.936C150.257 231.003 154.123 232.536 158.936 232.536C163.693 232.536 167.53 231.003 170.447 227.936C173.392 224.843 174.864 221.03 174.864 216.5C174.864 211.97 173.392 208.171 170.447 205.105C167.53 202.011 163.693 200.464 158.936 200.464C154.123 200.464 150.257 202.011 147.341 205.105Z" fill="#C3D4C1"/>
<path d="M276.274 265.494C272.091 261.157 270 255.826 270 249.5C270 243.174 272.091 237.843 276.274 233.506C280.485 229.169 285.873 227 292.438 227C298.975 227 304.363 229.182 308.601 233.547C312.867 237.912 315 243.229 315 249.5C315 255.771 312.867 261.088 308.601 265.453C304.363 269.818 298.975 272 292.438 272C285.845 272 280.457 269.831 276.274 265.494ZM281.094 238.105C278.269 241.171 276.856 244.97 276.856 249.5C276.856 254.03 278.269 257.843 281.094 260.936C283.947 264.003 287.729 265.536 292.438 265.536C297.091 265.536 300.845 264.003 303.698 260.936C306.579 257.843 308.019 254.03 308.019 249.5C308.019 244.97 306.579 241.171 303.698 238.105C300.845 235.011 297.091 233.464 292.438 233.464C287.729 233.464 283.947 235.011 281.094 238.105Z" fill="#F5BCC8" fill-opacity="0.5"/>
<path d="M231.274 144.494C227.091 140.157 225 134.826 225 128.5C225 122.174 227.091 116.843 231.274 112.506C235.485 108.169 240.873 106 247.438 106C253.975 106 259.363 108.182 263.601 112.547C267.867 116.912 270 122.229 270 128.5C270 134.771 267.867 140.088 263.601 144.453C259.363 148.818 253.975 151 247.438 151C240.845 151 235.457 148.831 231.274 144.494ZM236.094 117.105C233.269 120.171 231.856 123.97 231.856 128.5C231.856 133.03 233.269 136.843 236.094 139.936C238.947 143.003 242.729 144.536 247.438 144.536C252.091 144.536 255.845 143.003 258.698 139.936C261.579 136.843 263.019 133.03 263.019 128.5C263.019 123.97 261.579 120.171 258.698 117.105C255.845 114.011 252.091 112.464 247.438 112.464C242.729 112.464 238.947 114.011 236.094 117.105Z" fill="#F5BCC8" fill-opacity="0.5"/>
<path d="M76.2742 288.494C72.0914 284.157 70 278.826 70 272.5C70 266.174 72.0914 260.843 76.2742 256.506C80.4848 252.169 85.8726 250 92.4377 250C98.9751 250 104.363 252.182 108.601 256.547C112.867 260.912 115 266.229 115 272.5C115 278.771 112.867 284.088 108.601 288.453C104.363 292.818 98.9751 295 92.4377 295C85.8449 295 80.4571 292.831 76.2742 288.494ZM81.0942 261.105C78.2687 264.171 76.856 267.97 76.856 272.5C76.856 277.03 78.2687 280.843 81.0942 283.936C83.9474 287.003 87.7285 288.536 92.4377 288.536C97.0914 288.536 100.845 287.003 103.698 283.936C106.579 280.843 108.019 277.03 108.019 272.5C108.019 267.97 106.579 264.171 103.698 261.105C100.845 258.011 97.0914 256.464 92.4377 256.464C87.7285 256.464 83.9474 258.011 81.0942 261.105Z" fill="#F5BCC8" fill-opacity="0.5"/>
<path d="M169.414 333.494C165.138 329.157 163 323.826 163 317.5C163 311.174 165.138 305.843 169.414 301.506C173.718 297.169 179.225 295 185.936 295C192.619 295 198.126 297.182 202.459 301.547C206.82 305.912 209 311.229 209 317.5C209 323.771 206.82 329.088 202.459 333.453C198.126 337.818 192.619 340 185.936 340C179.197 340 173.689 337.831 169.414 333.494ZM174.341 306.105C171.452 309.171 170.008 312.97 170.008 317.5C170.008 322.03 171.452 325.843 174.341 328.936C177.257 332.003 181.122 333.536 185.936 333.536C190.693 333.536 194.53 332.003 197.447 328.936C200.392 325.843 201.864 322.03 201.864 317.5C201.864 312.97 200.392 309.171 197.447 306.105C194.53 303.011 190.693 301.464 185.936 301.464C181.122 301.464 177.257 303.011 174.341 306.105Z" fill="#C3D4C1" fill-opacity="0.5"/>
<path d="M173.274 116.494C169.091 112.157 167 106.826 167 100.5C167 94.174 169.091 88.8425 173.274 84.5055C177.485 80.1685 182.873 78 189.438 78C195.975 78 201.363 80.1823 205.601 84.547C209.867 88.9116 212 94.2293 212 100.5C212 106.771 209.867 112.088 205.601 116.453C201.363 120.818 195.975 123 189.438 123C182.845 123 177.457 120.831 173.274 116.494ZM178.094 89.105C175.269 92.1713 173.856 95.9696 173.856 100.5C173.856 105.03 175.269 108.843 178.094 111.936C180.947 115.003 184.729 116.536 189.438 116.536C194.091 116.536 197.845 115.003 200.698 111.936C203.579 108.843 205.019 105.03 205.019 100.5C205.019 95.9696 203.579 92.1713 200.698 89.105C197.845 86.011 194.091 84.4641 189.438 84.4641C184.729 84.4641 180.947 86.011 178.094 89.105Z" fill="#C3D4C1" fill-opacity="0.5"/>
<path d="M76.2742 172.35C72.0914 167.917 70 162.467 70 156C70 149.533 72.0914 144.083 76.2742 139.65C80.4848 135.217 85.8726 133 92.4377 133C98.9751 133 104.363 135.231 108.601 139.692C112.867 144.154 115 149.59 115 156C115 162.41 112.867 167.846 108.601 172.308C104.363 176.769 98.9751 179 92.4377 179C85.8449 179 80.4571 176.783 76.2742 172.35ZM81.0942 144.352C78.2687 147.486 76.856 151.369 76.856 156C76.856 160.631 78.2687 164.528 81.0942 167.691C83.9474 170.825 87.7285 172.392 92.4377 172.392C97.0914 172.392 100.845 170.825 103.698 167.691C106.579 164.528 108.019 160.631 108.019 156C108.019 151.369 106.579 147.486 103.698 144.352C100.845 141.189 97.0914 139.608 92.4377 139.608C87.7285 139.608 83.9474 141.189 81.0942 144.352Z" fill="#C3D4C1" fill-opacity="0.5"/>
<path d="M11.1801 374.873C-34.2733 327.455 -57 269.164 -57 200C-57 130.836 -34.2733 72.5451 11.1801 25.1271C56.9344 -22.291 115.482 -46 186.823 -46C257.862 -46 316.41 -22.14 362.465 25.5801C408.822 73.3002 432 131.44 432 200C432 268.56 408.822 326.7 362.465 374.42C316.41 422.14 257.862 446 186.823 446C115.181 446 56.6334 422.291 11.1801 374.873ZM63.5568 75.4144C32.8532 108.939 17.5014 150.468 17.5014 200C17.5014 249.532 32.8532 291.212 63.5568 325.039C94.5614 358.564 135.65 375.326 186.823 375.326C237.393 375.326 278.181 358.564 309.186 325.039C340.491 291.212 356.144 249.532 356.144 200C356.144 150.468 340.491 108.939 309.186 75.4144C278.181 41.5875 237.393 24.674 186.823 24.674C135.65 24.674 94.5614 41.5875 63.5568 75.4144Z" fill="#F7F4F1" fill-opacity="0.2"/>
<path d="M187.207 180C188.611 185.678 191.609 190.08 197.415 190.207C191.609 190.335 188.611 194.609 187.207 200.415C185.804 194.609 182.805 190.335 177 190.207C182.805 190.08 185.804 185.678 187.207 180Z" fill="#D6A2AC"/>
</svg>
