<svg width="24" height="24" viewBox="0 0 24 24" fill="none" xmlns="http://www.w3.org/2000/svg">
<path d="M7.5 3V6" stroke="#8E8E93" stroke-width="1.5" stroke-linecap="round" stroke-linejoin="round"/>
<path d="M16.5 3V6" stroke="#8E8E93" stroke-width="1.5" stroke-linecap="round" stroke-linejoin="round"/>
<path d="M9 21H6C4.34315 21 3 19.6569 3 18V7.5C3 5.84315 4.34315 4.5 6 4.5H18C19.6569 4.5 21 5.84315 21 7.5V10" stroke="#8E8E93" stroke-width="1.5" stroke-linecap="round" stroke-linejoin="round"/>
<path fill-rule="evenodd" clip-rule="evenodd" d="M12.9404 15.1226V20.0001C12.9404 20.5523 13.3881 21.0001 13.9404 21.0001H20.0001C20.5524 21.0001 21.0001 20.5523 21.0001 20.0001V15.2004" fill="#8E8E93"/>
<path d="M12.9404 15.1226V20.0001C12.9404 20.5523 13.3881 21.0001 13.9404 21.0001H20.0001C20.5524 21.0001 21.0001 20.5523 21.0001 20.0001V15.2004" stroke="#8E8E93" stroke-width="1.5" stroke-linecap="round" stroke-linejoin="round"/>
<path fill-rule="evenodd" clip-rule="evenodd" d="M21.9253 16L17.5792 12.2435C17.2037 11.9188 16.6469 11.9188 16.2713 12.2435L11.9253 16" fill="#8E8E93"/>
<path d="M21.9253 16L17.5792 12.2435C17.2037 11.9188 16.6469 11.9188 16.2713 12.2435L11.9253 16" stroke="#8E8E93" stroke-width="1.5" stroke-linecap="round" stroke-linejoin="round"/>
</svg>
