<svg width="375" height="442" viewBox="0 0 375 442" fill="none" xmlns="http://www.w3.org/2000/svg">
<mask id="mask0_249_2427" style="mask-type:alpha" maskUnits="userSpaceOnUse" x="0" y="0" width="375" height="442">
<rect width="375" height="442" fill="#D9D9D9"/>
</mask>
<g mask="url(#mask0_249_2427)">
<path d="M-18.3484 38.0463C-24.1161 32.0494 -27 24.6774 -27 15.9303C-27 7.18318 -24.1161 -0.18882 -18.3484 -6.18574C-12.5425 -12.1827 -5.11317 -15.1811 3.9395 -15.1811C12.954 -15.1811 20.3833 -12.1636 26.2274 -6.12844C32.1097 -0.0933275 35.0509 7.25958 35.0509 15.9303C35.0509 24.601 32.1097 31.9539 26.2274 37.989C20.3833 44.0241 12.954 47.0417 3.9395 47.0417C-5.15136 47.0417 -12.5807 44.0432 -18.3484 38.0463ZM-11.7021 0.174051C-15.5982 4.41391 -17.5463 9.66598 -17.5463 15.9303C-17.5463 22.1946 -15.5982 27.4657 -11.7021 31.7438C-7.76785 35.9837 -2.55397 38.1036 3.9395 38.1036C10.3566 38.1036 15.5323 35.9837 19.4665 31.7438C23.439 27.4657 25.4253 22.1946 25.4253 15.9303C25.4253 9.66598 23.439 4.41391 19.4665 0.174051C15.5323 -4.104 10.3566 -6.24303 3.9395 -6.24303C-2.55397 -6.24303 -7.76785 -4.104 -11.7021 0.174051Z" fill="#F7F4F1" fill-opacity="0.2"/>
<path d="M51.7024 38.0463C45.9346 32.0494 43.0508 24.6774 43.0508 15.9303C43.0508 7.18318 45.9346 -0.18882 51.7024 -6.18574C57.5083 -12.1827 64.9376 -15.1811 73.9903 -15.1811C83.0048 -15.1811 90.4341 -12.1636 96.2782 -6.12844C102.161 -0.0933275 105.102 7.25958 105.102 15.9303C105.102 24.601 102.161 31.9539 96.2782 37.989C90.4341 44.0241 83.0048 47.0417 73.9903 47.0417C64.8994 47.0417 57.4701 44.0432 51.7024 38.0463ZM58.3486 0.174051C54.4526 4.41391 52.5045 9.66598 52.5045 15.9303C52.5045 22.1946 54.4526 27.4657 58.3486 31.7438C62.2829 35.9837 67.4968 38.1036 73.9903 38.1036C80.4074 38.1036 85.583 35.9837 89.5173 31.7438C93.4898 27.4657 95.476 22.1946 95.476 15.9303C95.476 9.66598 93.4898 4.41391 89.5173 0.174051C85.583 -4.104 80.4074 -6.24303 73.9903 -6.24303C67.4968 -6.24303 62.2829 -4.104 58.3486 0.174051Z" fill="#F7F4F1" fill-opacity="0.2"/>
<path d="M121.753 38.0463C115.986 32.0494 113.102 24.6774 113.102 15.9303C113.102 7.18318 115.986 -0.18882 121.753 -6.18574C127.559 -12.1827 134.989 -15.1811 144.041 -15.1811C153.056 -15.1811 160.485 -12.1636 166.329 -6.12844C172.212 -0.0933275 175.153 7.25958 175.153 15.9303C175.153 24.601 172.212 31.9539 166.329 37.989C160.485 44.0241 153.056 47.0417 144.041 47.0417C134.95 47.0417 127.521 44.0432 121.753 38.0463ZM128.4 0.174051C124.504 4.41391 122.556 9.66598 122.556 15.9303C122.556 22.1946 124.504 27.4657 128.4 31.7438C132.334 35.9837 137.548 38.1036 144.041 38.1036C150.458 38.1036 155.634 35.9837 159.568 31.7438C163.541 27.4657 165.527 22.1946 165.527 15.9303C165.527 9.66598 163.541 4.41391 159.568 0.174051C155.634 -4.104 150.458 -6.24303 144.041 -6.24303C137.548 -6.24303 132.334 -4.104 128.4 0.174051Z" fill="#F7F4F1" fill-opacity="0.2"/>
<path d="M191.804 38.0463C186.036 32.0494 183.153 24.6774 183.153 15.9303C183.153 7.18318 186.036 -0.18882 191.804 -6.18574C197.61 -12.1827 205.039 -15.1811 214.092 -15.1811C223.107 -15.1811 230.536 -12.1636 236.38 -6.12844C242.262 -0.0933275 245.203 7.25958 245.203 15.9303C245.203 24.601 242.262 31.9539 236.38 37.989C230.536 44.0241 223.107 47.0417 214.092 47.0417C205.001 47.0417 197.572 44.0432 191.804 38.0463ZM198.45 0.174051C194.554 4.41391 192.606 9.66598 192.606 15.9303C192.606 22.1946 194.554 27.4657 198.45 31.7438C202.385 35.9837 207.599 38.1036 214.092 38.1036C220.509 38.1036 225.685 35.9837 229.619 31.7438C233.592 27.4657 235.578 22.1946 235.578 15.9303C235.578 9.66598 233.592 4.41391 229.619 0.174051C225.685 -4.104 220.509 -6.24303 214.092 -6.24303C207.599 -6.24303 202.385 -4.104 198.45 0.174051Z" fill="#F7F4F1" fill-opacity="0.2"/>
<path d="M261.855 38.0463C256.087 32.0494 253.204 24.6774 253.204 15.9303C253.204 7.18318 256.087 -0.18882 261.855 -6.18574C267.661 -12.1827 275.09 -15.1811 284.143 -15.1811C293.158 -15.1811 300.587 -12.1636 306.431 -6.12844C312.313 -0.0933275 315.255 7.25958 315.255 15.9303C315.255 24.601 312.313 31.9539 306.431 37.989C300.587 44.0241 293.158 47.0417 284.143 47.0417C275.052 47.0417 267.623 44.0432 261.855 38.0463ZM268.501 0.174051C264.605 4.41391 262.657 9.66598 262.657 15.9303C262.657 22.1946 264.605 27.4657 268.501 31.7438C272.436 35.9837 277.65 38.1036 284.143 38.1036C290.56 38.1036 295.736 35.9837 299.67 31.7438C303.643 27.4657 305.629 22.1946 305.629 15.9303C305.629 9.66598 303.643 4.41391 299.67 0.174051C295.736 -4.104 290.56 -6.24303 284.143 -6.24303C277.65 -6.24303 272.436 -4.104 268.501 0.174051Z" fill="#F7F4F1" fill-opacity="0.2"/>
<path d="M331.906 38.0463C326.138 32.0494 323.254 24.6774 323.254 15.9303C323.254 7.18318 326.138 -0.18882 331.906 -6.18574C337.712 -12.1827 345.141 -15.1811 354.194 -15.1811C363.208 -15.1811 370.638 -12.1636 376.482 -6.12844C382.364 -0.0933275 385.305 7.25958 385.305 15.9303C385.305 24.601 382.364 31.9539 376.482 37.989C370.638 44.0241 363.208 47.0417 354.194 47.0417C345.103 47.0417 337.674 44.0432 331.906 38.0463ZM338.552 0.174051C334.656 4.41391 332.708 9.66598 332.708 15.9303C332.708 22.1946 334.656 27.4657 338.552 31.7438C342.487 35.9837 347.7 38.1036 354.194 38.1036C360.611 38.1036 365.787 35.9837 369.721 31.7438C373.693 27.4657 375.68 22.1946 375.68 15.9303C375.68 9.66598 373.693 4.41391 369.721 0.174051C365.787 -4.104 360.611 -6.24303 354.194 -6.24303C347.7 -6.24303 342.487 -4.104 338.552 0.174051Z" fill="#F7F4F1" fill-opacity="0.2"/>
<path d="M-18.3484 108.269C-24.1161 102.272 -27 94.9002 -27 86.1531C-27 77.406 -24.1161 70.034 -18.3484 64.037C-12.5425 58.0401 -5.11317 55.0417 3.9395 55.0417C12.954 55.0417 20.3833 58.0592 26.2274 64.0943C32.1097 70.1294 35.0509 77.4824 35.0509 86.1531C35.0509 94.8238 32.1097 102.177 26.2274 108.212C20.3833 114.247 12.954 117.264 3.9395 117.264C-5.15136 117.264 -12.5807 114.266 -18.3484 108.269ZM-11.7021 70.3968C-15.5982 74.6367 -17.5463 79.8888 -17.5463 86.1531C-17.5463 92.4174 -15.5982 97.6885 -11.7021 101.967C-7.76785 106.206 -2.55397 108.326 3.9395 108.326C10.3566 108.326 15.5323 106.206 19.4665 101.967C23.439 97.6885 25.4253 92.4174 25.4253 86.1531C25.4253 79.8888 23.439 74.6367 19.4665 70.3968C15.5323 66.1188 10.3566 63.9797 3.9395 63.9797C-2.55397 63.9797 -7.76785 66.1188 -11.7021 70.3968Z" fill="#F7F4F1" fill-opacity="0.2"/>
<path d="M51.7024 108.269C45.9346 102.272 43.0508 94.9002 43.0508 86.1531C43.0508 77.406 45.9346 70.034 51.7024 64.037C57.5083 58.0401 64.9376 55.0417 73.9903 55.0417C83.0048 55.0417 90.4341 58.0592 96.2782 64.0943C102.161 70.1294 105.102 77.4824 105.102 86.1531C105.102 94.8238 102.161 102.177 96.2782 108.212C90.4341 114.247 83.0048 117.264 73.9903 117.264C64.8994 117.264 57.4701 114.266 51.7024 108.269ZM58.3486 70.3968C54.4526 74.6367 52.5045 79.8888 52.5045 86.1531C52.5045 92.4174 54.4526 97.6885 58.3486 101.967C62.2829 106.206 67.4968 108.326 73.9903 108.326C80.4074 108.326 85.583 106.206 89.5173 101.967C93.4898 97.6885 95.476 92.4174 95.476 86.1531C95.476 79.8888 93.4898 74.6367 89.5173 70.3968C85.583 66.1188 80.4074 63.9797 73.9903 63.9797C67.4968 63.9797 62.2829 66.1188 58.3486 70.3968Z" fill="#F7F4F1" fill-opacity="0.2"/>
<path d="M121.753 108.269C115.986 102.272 113.102 94.9002 113.102 86.1531C113.102 77.406 115.986 70.034 121.753 64.037C127.559 58.0401 134.989 55.0417 144.041 55.0417C153.056 55.0417 160.485 58.0592 166.329 64.0943C172.212 70.1294 175.153 77.4824 175.153 86.1531C175.153 94.8238 172.212 102.177 166.329 108.212C160.485 114.247 153.056 117.264 144.041 117.264C134.95 117.264 127.521 114.266 121.753 108.269ZM128.4 70.3968C124.504 74.6367 122.556 79.8888 122.556 86.1531C122.556 92.4174 124.504 97.6885 128.4 101.967C132.334 106.206 137.548 108.326 144.041 108.326C150.458 108.326 155.634 106.206 159.568 101.967C163.541 97.6885 165.527 92.4174 165.527 86.1531C165.527 79.8888 163.541 74.6367 159.568 70.3968C155.634 66.1188 150.458 63.9797 144.041 63.9797C137.548 63.9797 132.334 66.1188 128.4 70.3968Z" fill="#F7F4F1" fill-opacity="0.2"/>
<path d="M191.804 108.269C186.036 102.272 183.153 94.9002 183.153 86.1531C183.153 77.406 186.036 70.034 191.804 64.037C197.61 58.0401 205.039 55.0417 214.092 55.0417C223.107 55.0417 230.536 58.0592 236.38 64.0943C242.262 70.1294 245.203 77.4824 245.203 86.1531C245.203 94.8238 242.262 102.177 236.38 108.212C230.536 114.247 223.107 117.264 214.092 117.264C205.001 117.264 197.572 114.266 191.804 108.269ZM198.45 70.3968C194.554 74.6367 192.606 79.8888 192.606 86.1531C192.606 92.4174 194.554 97.6885 198.45 101.967C202.385 106.206 207.599 108.326 214.092 108.326C220.509 108.326 225.685 106.206 229.619 101.967C233.592 97.6885 235.578 92.4174 235.578 86.1531C235.578 79.8888 233.592 74.6367 229.619 70.3968C225.685 66.1188 220.509 63.9797 214.092 63.9797C207.599 63.9797 202.385 66.1188 198.45 70.3968Z" fill="#F7F4F1" fill-opacity="0.2"/>
<path d="M261.855 108.269C256.087 102.272 253.204 94.9002 253.204 86.1531C253.204 77.406 256.087 70.034 261.855 64.037C267.661 58.0401 275.09 55.0417 284.143 55.0417C293.158 55.0417 300.587 58.0592 306.431 64.0943C312.313 70.1294 315.255 77.4824 315.255 86.1531C315.255 94.8238 312.313 102.177 306.431 108.212C300.587 114.247 293.158 117.264 284.143 117.264C275.052 117.264 267.623 114.266 261.855 108.269ZM268.501 70.3968C264.605 74.6367 262.657 79.8888 262.657 86.1531C262.657 92.4174 264.605 97.6885 268.501 101.967C272.436 106.206 277.65 108.326 284.143 108.326C290.56 108.326 295.736 106.206 299.67 101.967C303.643 97.6885 305.629 92.4174 305.629 86.1531C305.629 79.8888 303.643 74.6367 299.67 70.3968C295.736 66.1188 290.56 63.9797 284.143 63.9797C277.65 63.9797 272.436 66.1188 268.501 70.3968Z" fill="#F7F4F1" fill-opacity="0.2"/>
<path d="M331.906 108.269C326.138 102.272 323.254 94.9002 323.254 86.1531C323.254 77.406 326.138 70.034 331.906 64.037C337.712 58.0401 345.141 55.0417 354.194 55.0417C363.208 55.0417 370.638 58.0592 376.482 64.0943C382.364 70.1294 385.305 77.4824 385.305 86.1531C385.305 94.8238 382.364 102.177 376.482 108.212C370.638 114.247 363.208 117.264 354.194 117.264C345.103 117.264 337.674 114.266 331.906 108.269ZM338.552 70.3968C334.656 74.6367 332.708 79.8888 332.708 86.1531C332.708 92.4174 334.656 97.6885 338.552 101.967C342.487 106.206 347.7 108.326 354.194 108.326C360.611 108.326 365.787 106.206 369.721 101.967C373.693 97.6885 375.68 92.4174 375.68 86.1531C375.68 79.8888 373.693 74.6367 369.721 70.3968C365.787 66.1188 360.611 63.9797 354.194 63.9797C347.7 63.9797 342.487 66.1188 338.552 70.3968Z" fill="#F7F4F1" fill-opacity="0.2"/>
<path d="M-18.3484 178.492C-24.1161 172.495 -27 165.123 -27 156.376C-27 147.629 -24.1161 140.257 -18.3484 134.26C-12.5425 128.263 -5.11317 125.264 3.9395 125.264C12.954 125.264 20.3833 128.282 26.2274 134.317C32.1097 140.352 35.0509 147.705 35.0509 156.376C35.0509 165.047 32.1097 172.399 26.2274 178.435C20.3833 184.47 12.954 187.487 3.9395 187.487C-5.15136 187.487 -12.5807 184.489 -18.3484 178.492ZM-11.7021 140.62C-15.5982 144.859 -17.5463 150.112 -17.5463 156.376C-17.5463 162.64 -15.5982 167.911 -11.7021 172.189C-7.76785 176.429 -2.55397 178.549 3.9395 178.549C10.3566 178.549 15.5323 176.429 19.4665 172.189C23.439 167.911 25.4253 162.64 25.4253 156.376C25.4253 150.112 23.439 144.859 19.4665 140.62C15.5323 136.342 10.3566 134.203 3.9395 134.203C-2.55397 134.203 -7.76785 136.342 -11.7021 140.62Z" fill="#F7F4F1" fill-opacity="0.2"/>
<path d="M51.7024 178.492C45.9346 172.495 43.0508 165.123 43.0508 156.376C43.0508 147.629 45.9346 140.257 51.7024 134.26C57.5083 128.263 64.9376 125.264 73.9903 125.264C83.0048 125.264 90.4341 128.282 96.2782 134.317C102.161 140.352 105.102 147.705 105.102 156.376C105.102 165.047 102.161 172.399 96.2782 178.435C90.4341 184.47 83.0048 187.487 73.9903 187.487C64.8994 187.487 57.4701 184.489 51.7024 178.492ZM58.3486 140.62C54.4526 144.859 52.5045 150.112 52.5045 156.376C52.5045 162.64 54.4526 167.911 58.3486 172.189C62.2829 176.429 67.4968 178.549 73.9903 178.549C80.4074 178.549 85.583 176.429 89.5173 172.189C93.4898 167.911 95.476 162.64 95.476 156.376C95.476 150.112 93.4898 144.859 89.5173 140.62C85.583 136.342 80.4074 134.203 73.9903 134.203C67.4968 134.203 62.2829 136.342 58.3486 140.62Z" fill="#F7F4F1" fill-opacity="0.2"/>
<path d="M121.753 178.492C115.986 172.495 113.102 165.123 113.102 156.376C113.102 147.629 115.986 140.257 121.753 134.26C127.559 128.263 134.989 125.264 144.041 125.264C153.056 125.264 160.485 128.282 166.329 134.317C172.212 140.352 175.153 147.705 175.153 156.376C175.153 165.047 172.212 172.399 166.329 178.435C160.485 184.47 153.056 187.487 144.041 187.487C134.95 187.487 127.521 184.489 121.753 178.492ZM128.4 140.62C124.504 144.859 122.556 150.112 122.556 156.376C122.556 162.64 124.504 167.911 128.4 172.189C132.334 176.429 137.548 178.549 144.041 178.549C150.458 178.549 155.634 176.429 159.568 172.189C163.541 167.911 165.527 162.64 165.527 156.376C165.527 150.112 163.541 144.859 159.568 140.62C155.634 136.342 150.458 134.203 144.041 134.203C137.548 134.203 132.334 136.342 128.4 140.62Z" fill="#F7F4F1" fill-opacity="0.2"/>
<path d="M191.804 178.492C186.036 172.495 183.153 165.123 183.153 156.376C183.153 147.629 186.036 140.257 191.804 134.26C197.61 128.263 205.039 125.264 214.092 125.264C223.107 125.264 230.536 128.282 236.38 134.317C242.262 140.352 245.203 147.705 245.203 156.376C245.203 165.047 242.262 172.399 236.38 178.435C230.536 184.47 223.107 187.487 214.092 187.487C205.001 187.487 197.572 184.489 191.804 178.492ZM198.45 140.62C194.554 144.859 192.606 150.112 192.606 156.376C192.606 162.64 194.554 167.911 198.45 172.189C202.385 176.429 207.599 178.549 214.092 178.549C220.509 178.549 225.685 176.429 229.619 172.189C233.592 167.911 235.578 162.64 235.578 156.376C235.578 150.112 233.592 144.859 229.619 140.62C225.685 136.342 220.509 134.203 214.092 134.203C207.599 134.203 202.385 136.342 198.45 140.62Z" fill="#F7F4F1" fill-opacity="0.2"/>
<path d="M261.855 178.492C256.087 172.495 253.204 165.123 253.204 156.376C253.204 147.629 256.087 140.257 261.855 134.26C267.661 128.263 275.09 125.264 284.143 125.264C293.158 125.264 300.587 128.282 306.431 134.317C312.313 140.352 315.255 147.705 315.255 156.376C315.255 165.047 312.313 172.399 306.431 178.435C300.587 184.47 293.158 187.487 284.143 187.487C275.052 187.487 267.623 184.489 261.855 178.492ZM268.501 140.62C264.605 144.859 262.657 150.112 262.657 156.376C262.657 162.64 264.605 167.911 268.501 172.189C272.436 176.429 277.65 178.549 284.143 178.549C290.56 178.549 295.736 176.429 299.67 172.189C303.643 167.911 305.629 162.64 305.629 156.376C305.629 150.112 303.643 144.859 299.67 140.62C295.736 136.342 290.56 134.203 284.143 134.203C277.65 134.203 272.436 136.342 268.501 140.62Z" fill="#F7F4F1" fill-opacity="0.2"/>
<path d="M331.906 178.492C326.138 172.495 323.254 165.123 323.254 156.376C323.254 147.629 326.138 140.257 331.906 134.26C337.712 128.263 345.141 125.264 354.194 125.264C363.208 125.264 370.638 128.282 376.482 134.317C382.364 140.352 385.305 147.705 385.305 156.376C385.305 165.047 382.364 172.399 376.482 178.435C370.638 184.47 363.208 187.487 354.194 187.487C345.103 187.487 337.674 184.489 331.906 178.492ZM338.552 140.62C334.656 144.859 332.708 150.112 332.708 156.376C332.708 162.64 334.656 167.911 338.552 172.189C342.487 176.429 347.7 178.549 354.194 178.549C360.611 178.549 365.787 176.429 369.721 172.189C373.693 167.911 375.68 162.64 375.68 156.376C375.68 150.112 373.693 144.859 369.721 140.62C365.787 136.342 360.611 134.203 354.194 134.203C347.7 134.203 342.487 136.342 338.552 140.62Z" fill="#F7F4F1" fill-opacity="0.2"/>
<path d="M-18.3484 248.715C-24.1161 242.718 -27 235.346 -27 226.599C-27 217.852 -24.1161 210.48 -18.3484 204.483C-12.5425 198.486 -5.11317 195.487 3.9395 195.487C12.954 195.487 20.3833 198.505 26.2274 204.54C32.1097 210.575 35.0509 217.928 35.0509 226.599C35.0509 235.269 32.1097 242.622 26.2274 248.657C20.3833 254.692 12.954 257.71 3.9395 257.71C-5.15136 257.71 -12.5807 254.712 -18.3484 248.715ZM-11.7021 210.842C-15.5982 215.082 -17.5463 220.334 -17.5463 226.599C-17.5463 232.863 -15.5982 238.134 -11.7021 242.412C-7.76785 246.652 -2.55397 248.772 3.9395 248.772C10.3566 248.772 15.5323 246.652 19.4665 242.412C23.439 238.134 25.4253 232.863 25.4253 226.599C25.4253 220.334 23.439 215.082 19.4665 210.842C15.5323 206.564 10.3566 204.425 3.9395 204.425C-2.55397 204.425 -7.76785 206.564 -11.7021 210.842Z" fill="#F7F4F1" fill-opacity="0.2"/>
<path d="M51.7024 248.715C45.9346 242.718 43.0508 235.346 43.0508 226.599C43.0508 217.852 45.9346 210.48 51.7024 204.483C57.5083 198.486 64.9376 195.487 73.9903 195.487C83.0048 195.487 90.4341 198.505 96.2782 204.54C102.161 210.575 105.102 217.928 105.102 226.599C105.102 235.269 102.161 242.622 96.2782 248.657C90.4341 254.692 83.0048 257.71 73.9903 257.71C64.8994 257.71 57.4701 254.712 51.7024 248.715ZM58.3486 210.842C54.4526 215.082 52.5045 220.334 52.5045 226.599C52.5045 232.863 54.4526 238.134 58.3486 242.412C62.2829 246.652 67.4968 248.772 73.9903 248.772C80.4074 248.772 85.583 246.652 89.5173 242.412C93.4898 238.134 95.476 232.863 95.476 226.599C95.476 220.334 93.4898 215.082 89.5173 210.842C85.583 206.564 80.4074 204.425 73.9903 204.425C67.4968 204.425 62.2829 206.564 58.3486 210.842Z" fill="#F7F4F1" fill-opacity="0.2"/>
<path d="M121.753 248.715C115.986 242.718 113.102 235.346 113.102 226.599C113.102 217.852 115.986 210.48 121.753 204.483C127.559 198.486 134.989 195.487 144.041 195.487C153.056 195.487 160.485 198.505 166.329 204.54C172.212 210.575 175.153 217.928 175.153 226.599C175.153 235.269 172.212 242.622 166.329 248.657C160.485 254.692 153.056 257.71 144.041 257.71C134.95 257.71 127.521 254.712 121.753 248.715ZM128.4 210.842C124.504 215.082 122.556 220.334 122.556 226.599C122.556 232.863 124.504 238.134 128.4 242.412C132.334 246.652 137.548 248.772 144.041 248.772C150.458 248.772 155.634 246.652 159.568 242.412C163.541 238.134 165.527 232.863 165.527 226.599C165.527 220.334 163.541 215.082 159.568 210.842C155.634 206.564 150.458 204.425 144.041 204.425C137.548 204.425 132.334 206.564 128.4 210.842Z" fill="#F7F4F1" fill-opacity="0.2"/>
<path d="M191.804 248.715C186.036 242.718 183.153 235.346 183.153 226.599C183.153 217.852 186.036 210.48 191.804 204.483C197.61 198.486 205.039 195.487 214.092 195.487C223.107 195.487 230.536 198.505 236.38 204.54C242.262 210.575 245.203 217.928 245.203 226.599C245.203 235.269 242.262 242.622 236.38 248.657C230.536 254.692 223.107 257.71 214.092 257.71C205.001 257.71 197.572 254.712 191.804 248.715ZM198.45 210.842C194.554 215.082 192.606 220.334 192.606 226.599C192.606 232.863 194.554 238.134 198.45 242.412C202.385 246.652 207.599 248.772 214.092 248.772C220.509 248.772 225.685 246.652 229.619 242.412C233.592 238.134 235.578 232.863 235.578 226.599C235.578 220.334 233.592 215.082 229.619 210.842C225.685 206.564 220.509 204.425 214.092 204.425C207.599 204.425 202.385 206.564 198.45 210.842Z" fill="#F7F4F1" fill-opacity="0.2"/>
<path d="M261.855 248.715C256.087 242.718 253.204 235.346 253.204 226.599C253.204 217.852 256.087 210.48 261.855 204.483C267.661 198.486 275.09 195.487 284.143 195.487C293.158 195.487 300.587 198.505 306.431 204.54C312.313 210.575 315.255 217.928 315.255 226.599C315.255 235.269 312.313 242.622 306.431 248.657C300.587 254.692 293.158 257.71 284.143 257.71C275.052 257.71 267.623 254.712 261.855 248.715ZM268.501 210.842C264.605 215.082 262.657 220.334 262.657 226.599C262.657 232.863 264.605 238.134 268.501 242.412C272.436 246.652 277.65 248.772 284.143 248.772C290.56 248.772 295.736 246.652 299.67 242.412C303.643 238.134 305.629 232.863 305.629 226.599C305.629 220.334 303.643 215.082 299.67 210.842C295.736 206.564 290.56 204.425 284.143 204.425C277.65 204.425 272.436 206.564 268.501 210.842Z" fill="#F7F4F1" fill-opacity="0.2"/>
<path d="M331.906 248.715C326.138 242.718 323.254 235.346 323.254 226.599C323.254 217.852 326.138 210.48 331.906 204.483C337.712 198.486 345.141 195.487 354.194 195.487C363.208 195.487 370.638 198.505 376.482 204.54C382.364 210.575 385.305 217.928 385.305 226.599C385.305 235.269 382.364 242.622 376.482 248.657C370.638 254.692 363.208 257.71 354.194 257.71C345.103 257.71 337.674 254.712 331.906 248.715ZM338.552 210.842C334.656 215.082 332.708 220.334 332.708 226.599C332.708 232.863 334.656 238.134 338.552 242.412C342.487 246.652 347.7 248.772 354.194 248.772C360.611 248.772 365.787 246.652 369.721 242.412C373.693 238.134 375.68 232.863 375.68 226.599C375.68 220.334 373.693 215.082 369.721 210.842C365.787 206.564 360.611 204.425 354.194 204.425C347.7 204.425 342.487 206.564 338.552 210.842Z" fill="#F7F4F1" fill-opacity="0.2"/>
<path d="M-18.3484 318.937C-24.1161 312.941 -27 305.569 -27 296.821C-27 288.074 -24.1161 280.702 -18.3484 274.705C-12.5425 268.708 -5.11317 265.71 3.9395 265.71C12.954 265.71 20.3833 268.728 26.2274 274.763C32.1097 280.798 35.0509 288.151 35.0509 296.821C35.0509 305.492 32.1097 312.845 26.2274 318.88C20.3833 324.915 12.954 327.933 3.9395 327.933C-5.15136 327.933 -12.5807 324.934 -18.3484 318.937ZM-11.7021 281.065C-15.5982 285.305 -17.5463 290.557 -17.5463 296.821C-17.5463 303.086 -15.5982 308.357 -11.7021 312.635C-7.76785 316.875 -2.55397 318.995 3.9395 318.995C10.3566 318.995 15.5323 316.875 19.4665 312.635C23.439 308.357 25.4253 303.086 25.4253 296.821C25.4253 290.557 23.439 285.305 19.4665 281.065C15.5323 276.787 10.3566 274.648 3.9395 274.648C-2.55397 274.648 -7.76785 276.787 -11.7021 281.065Z" fill="#F7F4F1" fill-opacity="0.2"/>
<path d="M51.7024 318.937C45.9346 312.941 43.0508 305.569 43.0508 296.821C43.0508 288.074 45.9346 280.702 51.7024 274.705C57.5083 268.708 64.9376 265.71 73.9903 265.71C83.0048 265.71 90.4341 268.728 96.2782 274.763C102.161 280.798 105.102 288.151 105.102 296.821C105.102 305.492 102.161 312.845 96.2782 318.88C90.4341 324.915 83.0048 327.933 73.9903 327.933C64.8994 327.933 57.4701 324.934 51.7024 318.937ZM58.3486 281.065C54.4526 285.305 52.5045 290.557 52.5045 296.821C52.5045 303.086 54.4526 308.357 58.3486 312.635C62.2829 316.875 67.4968 318.995 73.9903 318.995C80.4074 318.995 85.583 316.875 89.5173 312.635C93.4898 308.357 95.476 303.086 95.476 296.821C95.476 290.557 93.4898 285.305 89.5173 281.065C85.583 276.787 80.4074 274.648 73.9903 274.648C67.4968 274.648 62.2829 276.787 58.3486 281.065Z" fill="#F7F4F1" fill-opacity="0.2"/>
<path d="M121.753 318.937C115.986 312.941 113.102 305.569 113.102 296.821C113.102 288.074 115.986 280.702 121.753 274.705C127.559 268.708 134.989 265.71 144.041 265.71C153.056 265.71 160.485 268.728 166.329 274.763C172.212 280.798 175.153 288.151 175.153 296.821C175.153 305.492 172.212 312.845 166.329 318.88C160.485 324.915 153.056 327.933 144.041 327.933C134.95 327.933 127.521 324.934 121.753 318.937ZM128.4 281.065C124.504 285.305 122.556 290.557 122.556 296.821C122.556 303.086 124.504 308.357 128.4 312.635C132.334 316.875 137.548 318.995 144.041 318.995C150.458 318.995 155.634 316.875 159.568 312.635C163.541 308.357 165.527 303.086 165.527 296.821C165.527 290.557 163.541 285.305 159.568 281.065C155.634 276.787 150.458 274.648 144.041 274.648C137.548 274.648 132.334 276.787 128.4 281.065Z" fill="#F7F4F1" fill-opacity="0.2"/>
<path d="M191.804 318.937C186.036 312.941 183.153 305.569 183.153 296.821C183.153 288.074 186.036 280.702 191.804 274.705C197.61 268.708 205.039 265.71 214.092 265.71C223.107 265.71 230.536 268.728 236.38 274.763C242.262 280.798 245.203 288.151 245.203 296.821C245.203 305.492 242.262 312.845 236.38 318.88C230.536 324.915 223.107 327.933 214.092 327.933C205.001 327.933 197.572 324.934 191.804 318.937ZM198.45 281.065C194.554 285.305 192.606 290.557 192.606 296.821C192.606 303.086 194.554 308.357 198.45 312.635C202.385 316.875 207.599 318.995 214.092 318.995C220.509 318.995 225.685 316.875 229.619 312.635C233.592 308.357 235.578 303.086 235.578 296.821C235.578 290.557 233.592 285.305 229.619 281.065C225.685 276.787 220.509 274.648 214.092 274.648C207.599 274.648 202.385 276.787 198.45 281.065Z" fill="#C3D4C1"/>
<path d="M261.855 318.937C256.087 312.941 253.204 305.569 253.204 296.821C253.204 288.074 256.087 280.702 261.855 274.705C267.661 268.708 275.09 265.71 284.143 265.71C293.158 265.71 300.587 268.728 306.431 274.763C312.313 280.798 315.255 288.151 315.255 296.821C315.255 305.492 312.313 312.845 306.431 318.88C300.587 324.915 293.158 327.933 284.143 327.933C275.052 327.933 267.623 324.934 261.855 318.937ZM268.501 281.065C264.605 285.305 262.657 290.557 262.657 296.821C262.657 303.086 264.605 308.357 268.501 312.635C272.436 316.875 277.65 318.995 284.143 318.995C290.56 318.995 295.736 316.875 299.67 312.635C303.643 308.357 305.629 303.086 305.629 296.821C305.629 290.557 303.643 285.305 299.67 281.065C295.736 276.787 290.56 274.648 284.143 274.648C277.65 274.648 272.436 276.787 268.501 281.065Z" fill="#F7F4F1" fill-opacity="0.2"/>
<path d="M331.906 318.937C326.138 312.941 323.254 305.569 323.254 296.821C323.254 288.074 326.138 280.702 331.906 274.705C337.712 268.708 345.141 265.71 354.194 265.71C363.208 265.71 370.638 268.728 376.482 274.763C382.364 280.798 385.305 288.151 385.305 296.821C385.305 305.492 382.364 312.845 376.482 318.88C370.638 324.915 363.208 327.933 354.194 327.933C345.103 327.933 337.674 324.934 331.906 318.937ZM338.552 281.065C334.656 285.305 332.708 290.557 332.708 296.821C332.708 303.086 334.656 308.357 338.552 312.635C342.487 316.875 347.7 318.995 354.194 318.995C360.611 318.995 365.787 316.875 369.721 312.635C373.693 308.357 375.68 303.086 375.68 296.821C375.68 290.557 373.693 285.305 369.721 281.065C365.787 276.787 360.611 274.648 354.194 274.648C347.7 274.648 342.487 276.787 338.552 281.065Z" fill="#F7F4F1" fill-opacity="0.2"/>
<path d="M-18.3484 389.16C-24.1161 383.163 -27 375.791 -27 367.044C-27 358.297 -24.1161 350.925 -18.3484 344.928C-12.5425 338.931 -5.11317 335.933 3.9395 335.933C12.954 335.933 20.3833 338.95 26.2274 344.985C32.1097 351.021 35.0509 358.373 35.0509 367.044C35.0509 375.715 32.1097 383.068 26.2274 389.103C20.3833 395.138 12.954 398.156 3.9395 398.156C-5.15136 398.156 -12.5807 395.157 -18.3484 389.16ZM-11.7021 351.288C-15.5982 355.528 -17.5463 360.78 -17.5463 367.044C-17.5463 373.308 -15.5982 378.58 -11.7021 382.858C-7.76785 387.098 -2.55397 389.217 3.9395 389.217C10.3566 389.217 15.5323 387.098 19.4665 382.858C23.439 378.58 25.4253 373.308 25.4253 367.044C25.4253 360.78 23.439 355.528 19.4665 351.288C15.5323 347.01 10.3566 344.871 3.9395 344.871C-2.55397 344.871 -7.76785 347.01 -11.7021 351.288Z" fill="#F7F4F1" fill-opacity="0.2"/>
<path d="M51.7024 389.16C45.9346 383.163 43.0508 375.791 43.0508 367.044C43.0508 358.297 45.9346 350.925 51.7024 344.928C57.5083 338.931 64.9376 335.933 73.9903 335.933C83.0048 335.933 90.4341 338.95 96.2782 344.985C102.161 351.021 105.102 358.373 105.102 367.044C105.102 375.715 102.161 383.068 96.2782 389.103C90.4341 395.138 83.0048 398.156 73.9903 398.156C64.8994 398.156 57.4701 395.157 51.7024 389.16ZM58.3486 351.288C54.4526 355.528 52.5045 360.78 52.5045 367.044C52.5045 373.308 54.4526 378.58 58.3486 382.858C62.2829 387.098 67.4968 389.217 73.9903 389.217C80.4074 389.217 85.583 387.098 89.5173 382.858C93.4898 378.58 95.476 373.308 95.476 367.044C95.476 360.78 93.4898 355.528 89.5173 351.288C85.583 347.01 80.4074 344.871 73.9903 344.871C67.4968 344.871 62.2829 347.01 58.3486 351.288Z" fill="#F7F4F1" fill-opacity="0.2"/>
<path d="M121.753 389.16C115.986 383.163 113.102 375.791 113.102 367.044C113.102 358.297 115.986 350.925 121.753 344.928C127.559 338.931 134.989 335.933 144.041 335.933C153.056 335.933 160.485 338.95 166.329 344.985C172.212 351.021 175.153 358.373 175.153 367.044C175.153 375.715 172.212 383.068 166.329 389.103C160.485 395.138 153.056 398.156 144.041 398.156C134.95 398.156 127.521 395.157 121.753 389.16ZM128.4 351.288C124.504 355.528 122.556 360.78 122.556 367.044C122.556 373.308 124.504 378.58 128.4 382.858C132.334 387.098 137.548 389.217 144.041 389.217C150.458 389.217 155.634 387.098 159.568 382.858C163.541 378.58 165.527 373.308 165.527 367.044C165.527 360.78 163.541 355.528 159.568 351.288C155.634 347.01 150.458 344.871 144.041 344.871C137.548 344.871 132.334 347.01 128.4 351.288Z" fill="#F7F4F1" fill-opacity="0.2"/>
<path d="M191.804 389.16C186.036 383.163 183.153 375.791 183.153 367.044C183.153 358.297 186.036 350.925 191.804 344.928C197.61 338.931 205.039 335.933 214.092 335.933C223.107 335.933 230.536 338.95 236.38 344.985C242.262 351.021 245.203 358.373 245.203 367.044C245.203 375.715 242.262 383.068 236.38 389.103C230.536 395.138 223.107 398.156 214.092 398.156C205.001 398.156 197.572 395.157 191.804 389.16ZM198.45 351.288C194.554 355.528 192.606 360.78 192.606 367.044C192.606 373.308 194.554 378.58 198.45 382.858C202.385 387.098 207.599 389.217 214.092 389.217C220.509 389.217 225.685 387.098 229.619 382.858C233.592 378.58 235.578 373.308 235.578 367.044C235.578 360.78 233.592 355.528 229.619 351.288C225.685 347.01 220.509 344.871 214.092 344.871C207.599 344.871 202.385 347.01 198.45 351.288Z" fill="white" fill-opacity="0.2"/>
<path d="M261.855 389.16C256.087 383.163 253.204 375.791 253.204 367.044C253.204 358.297 256.087 350.925 261.855 344.928C267.661 338.931 275.09 335.933 284.143 335.933C293.158 335.933 300.587 338.95 306.431 344.985C312.313 351.021 315.255 358.373 315.255 367.044C315.255 375.715 312.313 383.068 306.431 389.103C300.587 395.138 293.158 398.156 284.143 398.156C275.052 398.156 267.623 395.157 261.855 389.16ZM268.501 351.288C264.605 355.528 262.657 360.78 262.657 367.044C262.657 373.308 264.605 378.58 268.501 382.858C272.436 387.098 277.65 389.217 284.143 389.217C290.56 389.217 295.736 387.098 299.67 382.858C303.643 378.58 305.629 373.308 305.629 367.044C305.629 360.78 303.643 355.528 299.67 351.288C295.736 347.01 290.56 344.871 284.143 344.871C277.65 344.871 272.436 347.01 268.501 351.288Z" fill="#F7F4F1" fill-opacity="0.2"/>
<path d="M331.906 389.16C326.138 383.163 323.254 375.791 323.254 367.044C323.254 358.297 326.138 350.925 331.906 344.928C337.712 338.931 345.141 335.933 354.194 335.933C363.208 335.933 370.638 338.95 376.482 344.985C382.364 351.021 385.305 358.373 385.305 367.044C385.305 375.715 382.364 383.068 376.482 389.103C370.638 395.138 363.208 398.156 354.194 398.156C345.103 398.156 337.674 395.157 331.906 389.16ZM338.552 351.288C334.656 355.528 332.708 360.78 332.708 367.044C332.708 373.308 334.656 378.58 338.552 382.858C342.487 387.098 347.7 389.217 354.194 389.217C360.611 389.217 365.787 387.098 369.721 382.858C373.693 378.58 375.68 373.308 375.68 367.044C375.68 360.78 373.693 355.528 369.721 351.288C365.787 347.01 360.611 344.871 354.194 344.871C347.7 344.871 342.487 347.01 338.552 351.288Z" fill="#F7F4F1" fill-opacity="0.2"/>
<path d="M143.996 374.534C145.147 377.327 144.536 380.624 142.158 382.88L85.9292 436.231C82.724 439.272 77.5274 439.272 74.3223 436.231L67.3762 429.64C64.1713 426.599 64.1714 421.668 67.3762 418.627L123.605 365.277C125.983 363.02 129.457 362.44 132.4 363.532L145.062 351.518L156.658 362.52L143.996 374.534Z" fill="#F7F4F1"/>
<path d="M323.069 267.133C317.996 275.108 316.33 283.442 323.069 290.124C316.027 283.729 307.394 285.166 298.838 290.124C304.063 282.005 305.577 273.815 298.838 267.133C305.88 273.527 314.664 271.947 323.069 267.133Z" fill="#D6A2AC"/>
<path d="M147.308 355.396C132.436 340.674 125 322.575 125 301.1C125 279.626 132.436 261.527 147.308 246.805C162.279 232.082 181.436 224.72 204.778 224.72C228.022 224.72 247.179 232.129 262.248 246.945C277.416 261.762 285 279.813 285 301.1C285 322.387 277.416 340.439 262.248 355.256C247.179 370.072 228.022 377.48 204.778 377.48C181.337 377.48 162.181 370.119 147.308 355.396ZM164.446 262.418C154.4 272.827 149.377 285.721 149.377 301.1C149.377 316.48 154.4 329.421 164.446 339.923C174.591 350.332 188.035 355.537 204.778 355.537C221.325 355.537 234.671 350.332 244.815 339.923C255.058 329.421 260.18 316.48 260.18 301.1C260.18 285.721 255.058 272.827 244.815 262.418C234.671 251.915 221.325 246.664 204.778 246.664C188.035 246.664 174.591 251.915 164.446 262.418Z" fill="#F7F4F1"/>
</g>
</svg>
