<svg width="109" height="65" viewBox="0 0 109 65" fill="none" xmlns="http://www.w3.org/2000/svg">
<path d="M84.775 29.1721V23.0002H91.5719V11.3986H98.3687V23.0002H108.291V29.1721H98.3687V51.2424C98.3687 53.2215 98.6682 54.6538 99.2672 55.5392C99.8922 56.3986 101.246 56.8283 103.33 56.8283H107.47V63.0002H100.283C97.6786 63.0002 95.5693 62.3101 93.9547 60.9299C92.3661 59.5497 91.5719 57.6747 91.5719 55.3049V29.1721H84.775Z" fill="white"/>
<path d="M47.2703 50.7736V23.0002H53.9109V50.7736C53.9109 53.0132 54.8875 54.745 56.8406 55.9689C58.8198 57.1929 61.1245 57.8049 63.7547 57.8049C66.4109 57.8049 68.7156 57.1929 70.6687 55.9689C72.6219 54.745 73.5984 53.0132 73.5984 50.7736V23.0002H80.3172V50.7736C80.3172 54.9403 78.6115 58.2215 75.2 60.6174C71.8146 63.0132 67.9865 64.2111 63.7156 64.2111C59.4708 64.2111 55.6687 63.0262 52.3094 60.6564C48.95 58.2866 47.2703 54.9924 47.2703 50.7736Z" fill="white"/>
<path d="M5.89844 58.0783C1.96615 53.9898 0 48.9637 0 43.0002C0 37.0366 1.96615 32.0106 5.89844 27.9221C9.85677 23.8335 14.9219 21.7892 21.0938 21.7892C27.2396 21.7892 32.3047 23.8465 36.2891 27.9611C40.2995 32.0757 42.3047 37.0887 42.3047 43.0002C42.3047 48.9116 40.2995 53.9247 36.2891 58.0392C32.3047 62.1538 27.2396 64.2111 21.0938 64.2111C14.8958 64.2111 9.83073 62.1669 5.89844 58.0783ZM10.4297 32.258C7.77344 35.1486 6.44531 38.7293 6.44531 43.0002C6.44531 47.271 7.77344 50.8648 10.4297 53.7814C13.112 56.6721 16.6667 58.1174 21.0938 58.1174C25.4688 58.1174 28.9974 56.6721 31.6797 53.7814C34.388 50.8648 35.7422 47.271 35.7422 43.0002C35.7422 38.7293 34.388 35.1486 31.6797 32.258C28.9974 29.3413 25.4688 27.883 21.0938 27.883C16.6667 27.883 13.112 29.3413 10.4297 32.258Z" fill="white"/>
<path d="M40.2641 0C41.8591 6.4525 45.2666 11.455 51.8641 11.6C45.2666 11.745 41.8591 16.6025 40.2641 23.2C38.6691 16.6025 35.2616 11.745 28.6641 11.6C35.2616 11.455 38.6691 6.4525 40.2641 0Z" fill="#D6A2AC"/>
</svg>
