<svg width="202" height="249" viewBox="0 0 202 249" fill="none" xmlns="http://www.w3.org/2000/svg">
<path d="M26.8246 220.811C8.94153 202.217 0 179.36 0 152.239C0 125.118 8.94153 102.261 26.8246 83.6677C44.8261 65.074 67.8609 55.7772 95.929 55.7772C123.879 55.7772 146.913 65.1333 165.033 83.8453C183.272 102.557 192.391 125.355 192.391 152.239C192.391 179.123 183.272 201.921 165.033 220.633C146.913 239.345 123.879 248.701 95.929 248.701C67.7424 248.701 44.7076 239.404 26.8246 220.811ZM47.4315 103.386C35.3516 116.532 29.3116 132.816 29.3116 152.239C29.3116 171.662 35.3516 188.005 47.4315 201.269C59.6299 214.415 75.7957 220.988 95.929 220.988C115.825 220.988 131.873 214.415 144.071 201.269C156.388 188.005 162.546 171.662 162.546 152.239C162.546 132.816 156.388 116.532 144.071 103.386C131.873 90.1222 115.825 83.49 95.929 83.49C75.7957 83.49 59.6299 90.1222 47.4315 103.386Z" fill="#F7F4F1"/>
<path d="M171.707 0C175.804 16.5722 184.556 29.4203 201.5 29.7927C184.556 30.1651 175.804 42.6408 171.707 59.5854C167.611 42.6408 158.859 30.1651 141.915 29.7927C158.859 29.4203 167.611 16.5722 171.707 0Z" fill="#D6A2AC"/>
</svg>
